<svg xmlns="http://www.w3.org/2000/svg" width="512" height="494.529">
  <path fill="#217844" d="M123.478 384v-6.829q14.212-2.215 21.78-9.229 7.567-7.013 15.872-26.947L248.433 128h6.829l93.024 214.103q9.413 21.779 16.242 28.239 6.83 6.275 23.994 6.83V384H286.454v-6.829q17.535-1.477 22.518-5.906 5.168-4.43 5.168-11.444 0-8.675-8.49-28.24l-63.677-146.733-59.063 144.888q-8.306 20.118-8.306 29.532 0 7.752 5.168 12.366 5.168 4.43 20.857 5.537v6.83z" transform="translate(-238.529 -247.264) scale(1.93175)"/>
</svg>
